<svg width="118" height="120" viewBox="0 0 118 120" fill="none" xmlns="http://www.w3.org/2000/svg">
<rect x="1" y="1" width="116" height="118" stroke="#D1B06B" stroke-width="2"/>
<g clip-path="url(#clip0_2_286)">
<path d="M59.5 51C59.8397 50.9996 60.1713 50.8985 60.4519 50.7099C64.6079 47.9312 66.4074 46.026 67.4 44.8349C69.5153 42.2958 70.528 39.6891 70.4994 36.8661C70.4661 33.6312 67.831 31 64.6253 31C62.2943 31 60.6798 32.2932 59.7396 33.3703C59.7098 33.4041 59.673 33.4312 59.6316 33.4497C59.5903 33.4683 59.5454 33.4779 59.5 33.4779C59.4546 33.4779 59.4097 33.4683 59.3684 33.4497C59.327 33.4312 59.2902 33.4041 59.2604 33.3703C58.3202 32.2922 56.7057 31 54.3747 31C51.169 31 48.5339 33.6313 48.5006 36.8667C48.472 39.6901 49.4858 42.2969 51.6 44.8354C52.5926 46.0266 54.3922 47.9318 58.5481 50.7104C58.8287 50.8988 59.1604 50.9997 59.5 51Z" fill="#D1B06B"/>
</g>
<path d="M29.3354 82L37.1354 62.83L39.9254 62.92L32.3054 82H29.3354ZM26.0654 63.7V61.18H39.9254V62.92L38.6954 63.7H26.0654ZM41.9941 80.29L49.6741 72.19C50.4541 71.39 51.0641 70.7 51.5041 70.12C51.9441 69.52 52.2541 68.97 52.4341 68.47C52.6341 67.97 52.7341 67.45 52.7341 66.91C52.7341 65.85 52.3941 65.02 51.7141 64.42C51.0341 63.82 50.1541 63.52 49.0741 63.52C48.0141 63.52 47.0841 63.78 46.2841 64.3C45.4841 64.8 44.7741 65.58 44.1541 66.64L42.1741 64.99C42.9941 63.63 43.9841 62.61 45.1441 61.93C46.3041 61.23 47.6441 60.88 49.1641 60.88C50.4441 60.88 51.5541 61.13 52.4941 61.63C53.4541 62.13 54.1941 62.83 54.7141 63.73C55.2341 64.63 55.4941 65.68 55.4941 66.88C55.4941 67.74 55.3841 68.51 55.1641 69.19C54.9641 69.87 54.5941 70.57 54.0541 71.29C53.5341 71.99 52.8041 72.83 51.8641 73.81L45.6541 80.2L41.9941 80.29ZM41.9941 82V80.29L44.3941 79.48H55.9741V82H41.9941ZM65.0446 82.3C63.6846 82.3 62.4446 82.05 61.3246 81.55C60.2246 81.03 59.2946 80.28 58.5346 79.3L60.4546 77.38C60.9146 78.08 61.5446 78.64 62.3446 79.06C63.1446 79.46 64.0346 79.66 65.0146 79.66C65.9346 79.66 66.7246 79.49 67.3846 79.15C68.0646 78.79 68.5946 78.29 68.9746 77.65C69.3746 77.01 69.5746 76.27 69.5746 75.43C69.5746 74.57 69.3746 73.83 68.9746 73.21C68.5946 72.57 68.0546 72.08 67.3546 71.74C66.6546 71.4 65.8246 71.23 64.8646 71.23C64.5046 71.23 64.1446 71.26 63.7846 71.32C63.4246 71.36 63.0746 71.43 62.7346 71.53L63.9346 69.91C64.3146 69.73 64.7246 69.59 65.1646 69.49C65.6046 69.39 66.0446 69.34 66.4846 69.34C67.6046 69.34 68.6046 69.6 69.4846 70.12C70.3846 70.64 71.0946 71.37 71.6146 72.31C72.1546 73.25 72.4246 74.34 72.4246 75.58C72.4246 76.9 72.1046 78.07 71.4646 79.09C70.8446 80.09 69.9846 80.88 68.8846 81.46C67.7846 82.02 66.5046 82.3 65.0446 82.3ZM62.7346 71.53V69.82L68.8246 62.89L72.1846 62.86L65.9146 69.97L62.7346 71.53ZM59.5246 63.7V61.18H72.1846V62.86L69.7246 63.7H59.5246ZM84.0772 82.3C82.5172 82.3 81.0872 81.86 79.7872 80.98C78.5072 80.1 77.4872 78.86 76.7272 77.26C75.9672 75.64 75.5872 73.74 75.5872 71.56C75.5872 69.38 75.9572 67.49 76.6972 65.89C77.4572 64.29 78.4772 63.06 79.7572 62.2C81.0372 61.32 82.4472 60.88 83.9872 60.88C85.5672 60.88 86.9972 61.32 88.2772 62.2C89.5572 63.06 90.5672 64.29 91.3072 65.89C92.0672 67.49 92.4472 69.39 92.4472 71.59C92.4472 73.77 92.0672 75.67 91.3072 77.29C90.5672 78.89 89.5572 80.13 88.2772 81.01C87.0172 81.87 85.6172 82.3 84.0772 82.3ZM84.0172 79.63C85.1172 79.63 86.0772 79.33 86.8972 78.73C87.7372 78.11 88.3972 77.2 88.8772 76C89.3572 74.8 89.5972 73.32 89.5972 71.56C89.5972 69.8 89.3572 68.33 88.8772 67.15C88.3972 65.95 87.7372 65.05 86.8972 64.45C86.0572 63.83 85.0872 63.52 83.9872 63.52C82.9072 63.52 81.9472 63.83 81.1072 64.45C80.2672 65.05 79.6072 65.95 79.1272 67.15C78.6672 68.33 78.4372 69.8 78.4372 71.56C78.4372 73.32 78.6672 74.8 79.1272 76C79.6072 77.2 80.2672 78.11 81.1072 78.73C81.9472 79.33 82.9172 79.63 84.0172 79.63Z" fill="#1F2732"/>
<defs>
<clipPath id="clip0_2_286">
<rect width="22" height="20" fill="white" transform="translate(48.5 31)"/>
</clipPath>
</defs>
</svg>
