<svg width="120" height="120" viewBox="0 0 120 120" fill="none" xmlns="http://www.w3.org/2000/svg">
<rect x="1" y="1" width="118" height="118" stroke="#D1B06B" stroke-width="2"/>
<path d="M60.5 29L63.4187 37.9828H72.8637L65.2225 43.5344L68.1412 52.5172L60.5 46.9656L52.8588 52.5172L55.7775 43.5344L48.1363 37.9828H57.5813L60.5 29Z" fill="#D1B06B"/>
<path d="M38.1575 84L44.4275 75.45L45.4475 74.91C45.2075 75.31 44.9175 75.66 44.5775 75.96C44.2375 76.26 43.8175 76.49 43.3175 76.65C42.8375 76.81 42.2475 76.89 41.5475 76.89C40.3475 76.89 39.2375 76.6 38.2175 76.02C37.2175 75.44 36.4175 74.64 35.8175 73.62C35.2175 72.58 34.9175 71.41 34.9175 70.11C34.9175 68.77 35.2475 67.56 35.9075 66.48C36.5675 65.38 37.4475 64.51 38.5475 63.87C39.6475 63.21 40.8675 62.88 42.2075 62.88C43.5675 62.88 44.7975 63.2 45.8975 63.84C46.9975 64.48 47.8675 65.34 48.5075 66.42C49.1475 67.48 49.4675 68.68 49.4675 70.02C49.4675 71.86 48.8275 73.69 47.5475 75.51L41.4275 84H38.1575ZM42.2075 74.67C43.0475 74.67 43.7975 74.47 44.4575 74.07C45.1375 73.65 45.6675 73.1 46.0475 72.42C46.4475 71.72 46.6475 70.95 46.6475 70.11C46.6475 69.23 46.4475 68.45 46.0475 67.77C45.6675 67.07 45.1375 66.52 44.4575 66.12C43.7975 65.72 43.0475 65.52 42.2075 65.52C41.3675 65.52 40.6075 65.72 39.9275 66.12C39.2675 66.52 38.7375 67.07 38.3375 67.77C37.9375 68.45 37.7375 69.23 37.7375 70.11C37.7375 70.97 37.9375 71.74 38.3375 72.42C38.7375 73.1 39.2775 73.65 39.9575 74.07C40.6375 74.47 41.3875 74.67 42.2075 74.67ZM58.8037 84.3C57.4237 84.3 56.2037 84.04 55.1437 83.52C54.1037 83 53.2937 82.28 52.7137 81.36C52.1337 80.44 51.8437 79.4 51.8437 78.24C51.8437 77.3 52.0237 76.44 52.3837 75.66C52.7437 74.88 53.2737 74.22 53.9737 73.68C54.6737 73.12 55.4937 72.72 56.4337 72.48L56.5237 73.29C55.7237 73.07 55.0437 72.72 54.4837 72.24C53.9237 71.74 53.4937 71.16 53.1937 70.5C52.9137 69.82 52.7737 69.1 52.7737 68.34C52.7737 67.26 53.0337 66.31 53.5537 65.49C54.0737 64.67 54.7837 64.03 55.6837 63.57C56.6037 63.09 57.6437 62.85 58.8037 62.85C59.9837 62.85 61.0237 63.09 61.9237 63.57C62.8237 64.03 63.5337 64.67 64.0537 65.49C64.5737 66.31 64.8337 67.26 64.8337 68.34C64.8337 69.1 64.6837 69.82 64.3837 70.5C64.1037 71.16 63.6837 71.74 63.1237 72.24C62.5837 72.72 61.9137 73.07 61.1137 73.29L61.1737 72.48C62.1337 72.72 62.9537 73.12 63.6337 73.68C64.3337 74.22 64.8637 74.88 65.2237 75.66C65.6037 76.44 65.7937 77.3 65.7937 78.24C65.7937 79.4 65.5037 80.44 64.9237 81.36C64.3437 82.28 63.5237 83 62.4637 83.52C61.4237 84.04 60.2037 84.3 58.8037 84.3ZM58.8037 81.75C59.6437 81.75 60.3737 81.59 60.9937 81.27C61.6337 80.93 62.1337 80.47 62.4937 79.89C62.8737 79.31 63.0637 78.64 63.0637 77.88C63.0637 77.14 62.8737 76.48 62.4937 75.9C62.1337 75.32 61.6337 74.87 60.9937 74.55C60.3737 74.21 59.6437 74.04 58.8037 74.04C57.9837 74.04 57.2537 74.21 56.6137 74.55C55.9737 74.87 55.4637 75.32 55.0837 75.9C54.7237 76.48 54.5437 77.14 54.5437 77.88C54.5437 78.64 54.7237 79.31 55.0837 79.89C55.4637 80.47 55.9737 80.93 56.6137 81.27C57.2537 81.59 57.9837 81.75 58.8037 81.75ZM58.8037 71.85C59.8037 71.85 60.6237 71.54 61.2637 70.92C61.9037 70.3 62.2237 69.5 62.2237 68.52C62.2237 67.56 61.9037 66.78 61.2637 66.18C60.6237 65.56 59.8037 65.25 58.8037 65.25C57.8237 65.25 57.0137 65.56 56.3737 66.18C55.7337 66.78 55.4137 67.56 55.4137 68.52C55.4137 69.5 55.7337 70.3 56.3737 70.92C57.0137 71.54 57.8237 71.85 58.8037 71.85ZM73.1479 71.31C72.3879 71.31 71.6879 71.12 71.0479 70.74C70.4079 70.36 69.8979 69.85 69.5179 69.21C69.1379 68.57 68.9479 67.86 68.9479 67.08C68.9479 66.28 69.1279 65.57 69.4879 64.95C69.8679 64.33 70.3779 63.83 71.0179 63.45C71.6579 63.07 72.3679 62.88 73.1479 62.88C73.9479 62.88 74.6679 63.07 75.3079 63.45C75.9479 63.83 76.4579 64.33 76.8379 64.95C77.2179 65.57 77.4079 66.28 77.4079 67.08C77.4079 67.86 77.2179 68.57 76.8379 69.21C76.4579 69.85 75.9479 70.36 75.3079 70.74C74.6879 71.12 73.9679 71.31 73.1479 71.31ZM73.1479 69.18C73.7479 69.18 74.2379 68.99 74.6179 68.61C74.9979 68.21 75.1879 67.7 75.1879 67.08C75.1879 66.46 74.9879 65.96 74.5879 65.58C74.2079 65.2 73.7279 65.01 73.1479 65.01C72.5679 65.01 72.0879 65.2 71.7079 65.58C71.3479 65.96 71.1679 66.46 71.1679 67.08C71.1679 67.7 71.3479 68.21 71.7079 68.61C72.0879 68.99 72.5679 69.18 73.1479 69.18ZM81.5179 84.3C80.7379 84.3 80.0279 84.11 79.3879 83.73C78.7479 83.35 78.2379 82.85 77.8579 82.23C77.4779 81.59 77.2879 80.87 77.2879 80.07C77.2879 79.29 77.4779 78.59 77.8579 77.97C78.2379 77.33 78.7479 76.82 79.3879 76.44C80.0279 76.06 80.7379 75.87 81.5179 75.87C82.2979 75.87 83.0079 76.06 83.6479 76.44C84.3079 76.82 84.8279 77.33 85.2079 77.97C85.5879 78.59 85.7779 79.29 85.7779 80.07C85.7779 80.87 85.5879 81.59 85.2079 82.23C84.8279 82.85 84.3179 83.35 83.6779 83.73C83.0379 84.11 82.3179 84.3 81.5179 84.3ZM81.5179 82.17C82.1179 82.17 82.6079 81.98 82.9879 81.6C83.3679 81.2 83.5579 80.69 83.5579 80.07C83.5579 79.47 83.3579 78.98 82.9579 78.6C82.5779 78.2 82.0979 78 81.5179 78C80.9379 78 80.4579 78.2 80.0779 78.6C79.6979 78.98 79.5079 79.47 79.5079 80.07C79.5079 80.69 79.6979 81.2 80.0779 81.6C80.4579 81.98 80.9379 82.17 81.5179 82.17ZM69.3079 84L82.6579 63.18H85.3879L72.0379 84H69.3079Z" fill="#1F2732"/>
</svg>
