<svg width="21" height="21" viewBox="0 0 21 21" fill="none" xmlns="http://www.w3.org/2000/svg">
<g id="IMAGE" clip-path="url(#clip0_2_863)">
<path id="Vector" fill-rule="evenodd" clip-rule="evenodd" d="M20.2039 10.2844C20.2039 5.07959 15.8214 0.859375 10.4164 0.859375C5.01143 0.859375 0.628906 5.07959 0.628906 10.2844C0.628906 14.9885 4.20746 18.8876 8.88711 19.5954V13.0097H6.40135V10.2844H8.88711V8.20793C8.88711 5.84621 10.3487 4.54059 12.5841 4.54059C13.655 4.54059 14.7753 4.72489 14.7753 4.72489V7.04453H13.5405C12.3254 7.04453 11.9453 7.77076 11.9453 8.51719V10.2844H14.6595L14.2261 13.0097H11.9457V19.5961C16.6254 18.8888 20.2039 14.9897 20.2039 10.2844Z" fill="white"/>
</g>
<defs>
<clipPath id="clip0_2_863">
<rect width="21" height="20" fill="white" transform="translate(0 0.03125)"/>
</clipPath>
</defs>
</svg>
