<svg width="214" height="56" viewBox="0 0 214 56" fill="none" xmlns="http://www.w3.org/2000/svg">
<g id="IMAGE" clip-path="url(#clip0_14505_3033)">
<path id="Vector" d="M62.3845 41.9776C62.5 41.9776 62.5576 42.0698 62.5576 42.2541C62.5576 42.4384 62.5 42.5305 62.3845 42.5305C61.9462 42.5305 61.2423 42.4998 60.2731 42.4384C59.304 42.3769 58.6 42.3462 58.1618 42.3462C57.5851 42.3462 56.904 42.3769 56.1196 42.4384C55.3353 42.4998 54.7234 42.5305 54.2852 42.5305C54.193 42.5305 54.1467 42.4384 54.1467 42.2541C54.1467 42.0698 54.193 41.9776 54.2852 41.9776C54.9545 41.9776 55.4391 41.8854 55.7389 41.7011C56.0621 41.4861 56.2235 41.1482 56.2235 40.6875C56.2235 40.2267 56.0275 39.4434 55.6351 38.3376L53.0045 31.2419H44.6283L42.9669 36.2181C42.6669 37.1396 42.5169 37.969 42.5169 38.7062C42.5169 39.7813 42.8054 40.5953 43.3822 41.1482C43.9591 41.7011 44.7667 41.9776 45.8051 41.9776C45.9205 41.9776 45.9782 42.0698 45.9782 42.2541C45.9782 42.4384 45.9205 42.5305 45.8051 42.5305C45.3898 42.5305 44.7898 42.4998 44.0053 42.4384C43.1284 42.3769 42.3669 42.3462 41.7208 42.3462C41.0978 42.3462 40.3709 42.3769 39.5402 42.4384C38.8018 42.4998 38.1904 42.5305 37.7058 42.5305C37.5904 42.5305 37.5327 42.4384 37.5327 42.2541C37.5327 42.0698 37.5904 41.9776 37.7058 41.9776C38.3519 41.9776 38.8942 41.8087 39.3326 41.4708C39.771 41.1329 40.1979 40.5339 40.6132 39.6738C41.0286 38.783 41.5247 37.4775 42.1016 35.7573L49.5433 13.4566C49.5894 13.3644 49.6933 13.3184 49.8548 13.3184C50.0163 13.3184 50.1086 13.3644 50.1317 13.4566L58.6117 36.2181C59.4195 38.4298 60.0884 39.9503 60.6193 40.7796C61.1731 41.5783 61.7615 41.9776 62.3845 41.9776ZM45.009 30.09H52.5892L48.6087 19.3543L45.009 30.09ZM73.4584 39.5816C73.5276 39.5816 73.5851 39.6431 73.6314 39.766C73.7006 39.8888 73.7006 39.981 73.6314 40.0424C72.7778 41.1175 71.97 41.9008 71.2085 42.3923C70.4471 42.853 69.6393 43.0834 68.7857 43.0834C67.7936 43.0834 66.9512 42.7763 66.259 42.1619C65.5896 41.5168 65.2552 40.4571 65.2552 38.9827V28.5695C65.2552 27.5558 65.1285 26.8801 64.8745 26.5422C64.6439 26.2042 64.1822 26.0353 63.49 26.0353C63.4671 26.0353 63.4324 26.0046 63.3861 25.9432C63.3632 25.851 63.3515 25.7589 63.3515 25.6667C63.3515 25.5746 63.3632 25.4978 63.3861 25.4363C63.4324 25.3442 63.4671 25.2981 63.49 25.2981C65.6588 25.1753 67.0204 23.9312 67.5742 21.566C67.6206 21.4431 67.7127 21.3817 67.8511 21.3817C68.0125 21.3817 68.0934 21.4431 68.0934 21.566V25.206C69.1781 25.1753 70.7123 25.0216 72.6969 24.7452C72.7432 24.7452 72.789 24.868 72.8353 25.1138C72.9046 25.3288 72.9392 25.5746 72.9392 25.851C72.9392 26.1275 72.8928 26.4039 72.8007 26.6804C72.7315 26.9568 72.6506 27.0797 72.5584 27.049C71.2661 26.6497 69.7777 26.4039 68.0934 26.3118V37.4622C68.0934 38.6601 68.3128 39.551 68.7511 40.1346C69.2127 40.6875 69.8469 40.9639 70.6547 40.9639C71.6239 40.9639 72.5355 40.5186 73.3891 39.6277L73.4584 39.5816ZM85.1196 39.5816C85.1888 39.5816 85.2468 39.6431 85.2926 39.766C85.3619 39.8888 85.3619 39.981 85.2926 40.0424C84.439 41.1175 83.6312 41.9008 82.8698 42.3923C82.1083 42.853 81.301 43.0834 80.4469 43.0834C79.4548 43.0834 78.6124 42.7763 77.9202 42.1619C77.2514 41.5168 76.9164 40.4571 76.9164 38.9827V28.5695C76.9164 27.5558 76.7897 26.8801 76.5357 26.5422C76.3051 26.2042 75.8434 26.0353 75.1512 26.0353C75.1283 26.0353 75.0937 26.0046 75.0473 25.9432C75.0244 25.851 75.0127 25.7589 75.0127 25.6667C75.0127 25.5746 75.0244 25.4978 75.0473 25.4363C75.0937 25.3442 75.1283 25.2981 75.1512 25.2981C77.3206 25.1753 78.6817 23.9312 79.2355 21.566C79.2818 21.4431 79.3739 21.3817 79.5124 21.3817C79.6742 21.3817 79.7546 21.4431 79.7546 21.566V25.206C80.8393 25.1753 82.374 25.0216 84.3581 24.7452C84.4044 24.7452 84.4508 24.868 84.4966 25.1138C84.5658 25.3288 84.6004 25.5746 84.6004 25.851C84.6004 26.1275 84.5546 26.4039 84.4619 26.6804C84.3927 26.9568 84.3123 27.0797 84.2197 27.049C82.9278 26.6497 81.4395 26.4039 79.7546 26.3118V37.4622C79.7546 38.6601 79.974 39.551 80.4123 40.1346C80.874 40.6875 81.5087 40.9639 82.316 40.9639C83.2851 40.9639 84.1968 40.5186 85.0504 39.6277L85.1196 39.5816ZM93.8393 43.1295C92.4548 43.1295 91.2316 42.6994 90.1703 41.8394C89.1085 40.9485 88.2895 39.766 87.7128 38.2915C87.1356 36.7864 86.8475 35.1584 86.8475 33.4075C86.8475 31.4108 87.2166 29.7214 87.9551 28.3391C88.7166 26.9261 89.674 25.8817 90.828 25.206C92.0048 24.4994 93.2045 24.1462 94.4277 24.1462C95.8351 24.1462 97.0582 24.5916 98.0966 25.4824C99.1579 26.3732 99.9657 27.5558 100.519 29.0303C101.073 30.474 101.35 32.0252 101.35 33.6839C101.35 35.527 101.004 37.1703 100.312 38.6141C99.6424 40.0578 98.7308 41.1789 97.5774 41.9776C96.4235 42.7455 95.1774 43.1295 93.8393 43.1295ZM94.8776 42.208C95.8926 42.208 96.6658 41.609 97.1967 40.411C97.7505 39.213 98.0274 37.4622 98.0274 35.1584C98.0274 33.1003 97.808 31.3034 97.3697 29.7675C96.9544 28.2316 96.3772 27.0644 95.6391 26.2657C94.9234 25.467 94.1391 25.0677 93.2855 25.0677C92.2471 25.0677 91.4622 25.636 90.9318 26.7725C90.4009 27.9091 90.1357 29.5832 90.1357 31.7948C90.1357 33.7915 90.3317 35.5884 90.7241 37.1857C91.1395 38.7523 91.7045 39.981 92.4201 40.8718C93.1582 41.7626 93.9777 42.208 94.8776 42.208ZM112.61 24.2844C113.141 24.2844 113.649 24.5148 114.133 24.9756C114.618 25.4363 114.86 25.9892 114.86 26.6343C114.86 27.2179 114.722 27.6941 114.445 28.0627C114.191 28.4313 113.834 28.6156 113.372 28.6156C113.072 28.6156 112.818 28.5388 112.61 28.3852C112.426 28.2009 112.23 27.9551 112.022 27.648C111.814 27.3715 111.63 27.1718 111.468 27.049C111.307 26.8954 111.11 26.8186 110.88 26.8186C110.626 26.8186 110.349 26.9568 110.049 27.2333C109.772 27.4791 109.334 28.0166 108.734 28.846V38.7984C108.734 39.6584 108.826 40.3189 109.011 40.7796C109.195 41.2097 109.507 41.5168 109.945 41.7011C110.384 41.8854 111.03 41.9776 111.884 41.9776C111.976 41.9776 112.022 42.0698 112.022 42.2541C112.022 42.4384 111.976 42.5305 111.884 42.5305C111.122 42.5305 110.511 42.5151 110.049 42.4844L107.315 42.4384L105.307 42.4844C104.984 42.5151 104.534 42.5305 103.957 42.5305C103.888 42.5305 103.853 42.4384 103.853 42.2541C103.853 42.0698 103.888 41.9776 103.957 41.9776C104.742 41.9776 105.261 41.7626 105.515 41.3325C105.769 40.9025 105.896 40.0578 105.896 38.7984V29.9979C105.896 29.0149 105.803 28.293 105.619 27.8323C105.457 27.3715 105.18 27.1411 104.788 27.1411C104.442 27.1411 103.865 27.3715 103.057 27.8323H103.023C102.931 27.8323 102.861 27.7555 102.815 27.6019C102.769 27.4483 102.78 27.3561 102.85 27.3254L107.384 24.3766C107.522 24.3151 107.603 24.2844 107.626 24.2844C107.857 24.2844 108.088 24.6223 108.318 25.2981C108.549 25.9432 108.687 26.8032 108.734 27.8784C109.634 26.5268 110.384 25.5899 110.984 25.0677C111.584 24.5455 112.126 24.2844 112.61 24.2844ZM132.929 41.9776C132.998 41.9776 133.033 42.0698 133.033 42.2541C133.033 42.4384 132.998 42.5305 132.929 42.5305C132.352 42.5305 131.902 42.5151 131.579 42.4844L129.572 42.4384L127.599 42.4844C127.253 42.5151 126.791 42.5305 126.214 42.5305C126.145 42.5305 126.11 42.4384 126.11 42.2541C126.11 42.0698 126.145 41.9776 126.214 41.9776C126.999 41.9776 127.518 41.7626 127.772 41.3325C128.025 40.9025 128.152 40.0578 128.152 38.7984V31.887C128.152 30.1668 127.91 28.9074 127.426 28.1087C126.964 27.2794 126.225 26.8647 125.21 26.8647C124.61 26.8647 123.999 27.049 123.376 27.4176C122.753 27.7862 122.187 28.2777 121.68 28.892V38.7984C121.68 40.0578 121.807 40.9025 122.061 41.3325C122.314 41.7626 122.833 41.9776 123.618 41.9776C123.687 41.9776 123.722 42.0698 123.722 42.2541C123.722 42.4384 123.687 42.5305 123.618 42.5305C123.041 42.5305 122.591 42.5151 122.268 42.4844L120.261 42.4384L118.253 42.4844C117.93 42.5151 117.48 42.5305 116.903 42.5305C116.834 42.5305 116.8 42.4384 116.8 42.2541C116.8 42.0698 116.834 41.9776 116.903 41.9776C117.688 41.9776 118.207 41.7626 118.461 41.3325C118.714 40.9025 118.842 40.0578 118.842 38.7984V29.9979C118.842 29.0149 118.749 28.293 118.565 27.8323C118.403 27.3715 118.126 27.1411 117.734 27.1411C117.388 27.1411 116.811 27.3715 116.004 27.8323H115.969C115.876 27.8323 115.807 27.7555 115.761 27.6019C115.715 27.4483 115.727 27.3561 115.796 27.3254L120.33 24.3766C120.469 24.3151 120.549 24.2844 120.572 24.2844C120.803 24.2844 121.034 24.6377 121.265 25.3442C121.518 26.0199 121.657 26.9108 121.68 28.0166C123.295 25.467 125.049 24.1923 126.941 24.1923C128.21 24.1923 129.202 24.7145 129.918 25.7589C130.633 26.7725 130.991 28.1548 130.991 29.9057V38.7984C130.991 40.0578 131.117 40.9025 131.371 41.3325C131.625 41.7626 132.144 41.9776 132.929 41.9776ZM146.72 39.6277C146.766 39.6277 146.812 39.6892 146.858 39.812C146.927 39.9349 146.939 40.027 146.893 40.0885C146.039 41.1329 145.185 41.9008 144.331 42.3923C143.478 42.853 142.554 43.0834 141.562 43.0834C140.155 43.0834 138.932 42.6687 137.894 41.8394C136.878 41.01 136.094 39.9196 135.54 38.568C135.009 37.2164 134.744 35.7573 134.744 34.1908C134.744 32.3784 135.078 30.7197 135.748 29.2146C136.417 27.7094 137.328 26.5268 138.482 25.6667C139.659 24.7759 140.962 24.3305 142.393 24.3305C143.778 24.3305 144.851 24.7759 145.612 25.6667C146.374 26.5575 146.754 27.8784 146.754 29.6292C146.754 30.5201 146.616 30.9654 146.339 30.9654L137.894 31.0115C137.871 31.288 137.859 31.7027 137.859 32.2556C137.859 34.9587 138.321 37.1089 139.243 38.7062C140.19 40.2728 141.528 41.0561 143.258 41.0561C143.904 41.0561 144.447 40.9639 144.885 40.7796C145.323 40.5646 145.912 40.196 146.65 39.6738L146.72 39.6277ZM141.147 25.252C140.293 25.252 139.59 25.6974 139.036 26.5882C138.505 27.4483 138.148 28.6463 137.963 30.1822L143.501 30.0439C143.454 26.8493 142.67 25.252 141.147 25.252ZM163.128 24.7452C163.173 24.7452 163.197 24.8373 163.197 25.0216C163.197 25.206 163.173 25.2981 163.128 25.2981C162.435 25.2981 161.835 25.6667 161.328 26.4039C160.843 27.1411 160.393 28.2623 159.978 29.7675L155.997 43.8206C155.167 46.7695 154.371 49.0887 153.609 50.7781C152.848 52.4675 152.075 53.6655 151.29 54.372C150.505 55.1092 149.64 55.4779 148.694 55.4779C148.048 55.4779 147.552 55.2935 147.206 54.9249C146.836 54.587 146.652 54.0649 146.652 53.3584C146.652 52.744 146.802 52.2679 147.102 51.93C147.379 51.6229 147.725 51.4692 148.14 51.4692C148.417 51.4692 148.648 51.5153 148.833 51.6075C149.04 51.7303 149.248 51.8839 149.456 52.0682C149.686 52.2525 149.882 52.3908 150.044 52.4829C150.228 52.5751 150.448 52.6211 150.702 52.6211C151.232 52.6211 151.717 52.3293 152.155 51.7457C152.617 51.1928 153.09 50.2559 153.575 48.9351C154.082 47.6143 154.682 45.7404 155.374 43.3138L149.906 28.5695C149.398 27.2487 148.994 26.3732 148.694 25.9432C148.417 25.5131 148.071 25.2981 147.656 25.2981C147.587 25.2981 147.552 25.206 147.552 25.0216C147.552 24.8373 147.587 24.7452 147.656 24.7452C148.255 24.7452 148.717 24.7606 149.04 24.7913L150.39 24.8373L152.744 24.7913C153.09 24.7606 153.563 24.7452 154.163 24.7452C154.232 24.7452 154.267 24.8373 154.267 25.0216C154.267 25.206 154.232 25.2981 154.163 25.2981C153.54 25.2981 153.078 25.3749 152.778 25.5285C152.502 25.6513 152.363 25.8971 152.363 26.2657C152.363 26.5422 152.421 26.8186 152.536 27.0951L156.759 38.7062L159.078 29.7675C159.286 28.9688 159.389 28.293 159.389 27.7401C159.389 26.1121 158.616 25.2981 157.07 25.2981C157.024 25.2981 157.001 25.206 157.001 25.0216C157.001 24.8373 157.024 24.7452 157.07 24.7452C157.693 24.7452 158.166 24.7606 158.49 24.7913L160.566 24.8373L161.916 24.7913C162.17 24.7606 162.574 24.7452 163.128 24.7452ZM166.716 27.1411C166.716 28.0934 166.958 28.892 167.443 29.5371C167.951 30.1822 168.678 30.8579 169.624 31.5644C170.454 32.1788 171.089 32.6856 171.527 33.0849C171.989 33.4842 172.381 34.0218 172.704 34.6976C173.05 35.3734 173.223 36.1874 173.223 37.1396C173.223 38.184 173.027 39.1516 172.635 40.0424C172.243 40.9332 171.655 41.6551 170.87 42.208C170.108 42.7609 169.197 43.0373 168.135 43.0373C166.866 43.0373 165.701 42.6073 164.639 41.7472C164.501 41.5629 164.432 41.3786 164.432 41.1943L164.362 36.9553C164.362 36.8632 164.421 36.8171 164.536 36.8171C164.674 36.7864 164.755 36.8017 164.778 36.8632C165.17 38.3991 165.759 39.6584 166.543 40.6414C167.351 41.6244 168.204 42.1158 169.104 42.1158C169.682 42.1158 170.132 41.9161 170.454 41.5168C170.778 41.1175 170.939 40.5186 170.939 39.7199C170.939 38.5526 170.685 37.6311 170.177 36.9553C169.67 36.2488 168.931 35.5577 167.962 34.8819C167.178 34.329 166.567 33.8682 166.128 33.4996C165.689 33.1003 165.309 32.5781 164.986 31.933C164.686 31.2573 164.536 30.4279 164.536 29.4449C164.536 27.6941 165.009 26.3885 165.955 25.5285C166.924 24.6684 168.089 24.2384 169.451 24.2384C170.35 24.2384 171.274 24.4687 172.22 24.9295C172.427 25.0523 172.531 25.2213 172.531 25.4363C172.531 26.1429 172.52 26.6958 172.496 27.0951L172.462 29.3067C172.462 29.3989 172.393 29.4449 172.254 29.4449C172.116 29.4449 172.046 29.3989 172.046 29.3067C172.046 28.6923 171.862 28.0627 171.493 27.4176C171.124 26.7418 170.651 26.1889 170.074 25.7589C169.497 25.3288 168.908 25.1138 168.308 25.1138C167.247 25.1138 166.716 25.7896 166.716 27.1411ZM185.577 39.5816C185.647 39.5816 185.704 39.6431 185.75 39.766C185.82 39.8888 185.82 39.981 185.75 40.0424C184.896 41.1175 184.089 41.9008 183.327 42.3923C182.566 42.853 181.758 43.0834 180.905 43.0834C179.912 43.0834 179.07 42.7763 178.378 42.1619C177.709 41.5168 177.374 40.4571 177.374 38.9827V28.5695C177.374 27.5558 177.247 26.8801 176.993 26.5422C176.762 26.2042 176.301 26.0353 175.609 26.0353C175.585 26.0353 175.551 26.0046 175.505 25.9432C175.482 25.851 175.47 25.7589 175.47 25.6667C175.47 25.5746 175.482 25.4978 175.505 25.4363C175.551 25.3442 175.585 25.2981 175.609 25.2981C177.778 25.1753 179.139 23.9312 179.693 21.566C179.739 21.4431 179.832 21.3817 179.97 21.3817C180.131 21.3817 180.212 21.4431 180.212 21.566V25.206C181.297 25.1753 182.831 25.0216 184.816 24.7452C184.862 24.7452 184.908 24.868 184.954 25.1138C185.023 25.3288 185.058 25.5746 185.058 25.851C185.058 26.1275 185.012 26.4039 184.92 26.6804C184.85 26.9568 184.769 27.0797 184.677 27.049C183.385 26.6497 181.897 26.4039 180.212 26.3118V37.4622C180.212 38.6601 180.431 39.551 180.87 40.1346C181.331 40.6875 181.966 40.9639 182.774 40.9639C183.743 40.9639 184.654 40.5186 185.508 39.6277L185.577 39.5816ZM199.281 39.6277C199.327 39.6277 199.373 39.6892 199.419 39.812C199.488 39.9349 199.5 40.027 199.454 40.0885C198.6 41.1329 197.746 41.9008 196.892 42.3923C196.039 42.853 195.115 43.0834 194.123 43.0834C192.716 43.0834 191.493 42.6687 190.454 41.8394C189.439 41.01 188.655 39.9196 188.101 38.568C187.57 37.2164 187.305 35.7573 187.305 34.1908C187.305 32.3784 187.639 30.7197 188.308 29.2146C188.978 27.7094 189.889 26.5268 191.043 25.6667C192.22 24.7759 193.523 24.3305 194.954 24.3305C196.339 24.3305 197.412 24.7759 198.173 25.6667C198.935 26.5575 199.315 27.8784 199.315 29.6292C199.315 30.5201 199.177 30.9654 198.9 30.9654L190.454 31.0115C190.432 31.288 190.42 31.7027 190.42 32.2556C190.42 34.9587 190.882 37.1089 191.804 38.7062C192.751 40.2728 194.089 41.0561 195.819 41.0561C196.465 41.0561 197.008 40.9639 197.446 40.7796C197.884 40.5646 198.473 40.196 199.211 39.6738L199.281 39.6277ZM193.708 25.252C192.854 25.252 192.15 25.6974 191.597 26.5882C191.066 27.4483 190.708 28.6463 190.524 30.1822L196.062 30.0439C196.015 26.8493 195.231 25.252 193.708 25.252ZM210.601 24.2844C211.131 24.2844 211.639 24.5148 212.123 24.9756C212.608 25.4363 212.85 25.9892 212.85 26.6343C212.85 27.2179 212.712 27.6941 212.435 28.0627C212.181 28.4313 211.823 28.6156 211.362 28.6156C211.062 28.6156 210.808 28.5388 210.601 28.3852C210.416 28.2009 210.22 27.9551 210.012 27.648C209.804 27.3715 209.62 27.1718 209.458 27.049C209.296 26.8954 209.1 26.8186 208.87 26.8186C208.616 26.8186 208.339 26.9568 208.039 27.2333C207.762 27.4791 207.324 28.0166 206.724 28.846V38.7984C206.724 39.6584 206.816 40.3189 207.001 40.7796C207.185 41.2097 207.497 41.5168 207.935 41.7011C208.374 41.8854 209.02 41.9776 209.874 41.9776C209.966 41.9776 210.012 42.0698 210.012 42.2541C210.012 42.4384 209.966 42.5305 209.874 42.5305C209.112 42.5305 208.5 42.5151 208.039 42.4844L205.305 42.4384L203.297 42.4844C202.974 42.5151 202.524 42.5305 201.947 42.5305C201.878 42.5305 201.844 42.4384 201.844 42.2541C201.844 42.0698 201.878 41.9776 201.947 41.9776C202.732 41.9776 203.251 41.7626 203.505 41.3325C203.758 40.9025 203.886 40.0578 203.886 38.7984V29.9979C203.886 29.0149 203.793 28.293 203.609 27.8323C203.447 27.3715 203.17 27.1411 202.778 27.1411C202.432 27.1411 201.855 27.3715 201.047 27.8323H201.013C200.92 27.8323 200.851 27.7555 200.805 27.6019C200.759 27.4483 200.771 27.3561 200.84 27.3254L205.374 24.3766C205.512 24.3151 205.593 24.2844 205.616 24.2844C205.847 24.2844 206.077 24.6223 206.309 25.2981C206.539 25.9432 206.678 26.8032 206.724 27.8784C207.624 26.5268 208.374 25.5899 208.974 25.0677C209.573 24.5455 210.116 24.2844 210.601 24.2844Z" fill="white"/>
<path id="Vector_2" d="M31.6192 16.8876C31.6192 13.9563 29.7922 11.5801 27.5384 11.5801H5.64577C3.39195 11.5801 1.56494 13.9563 1.56494 16.8876" stroke="url(#paint0_radial_14505_3033)" stroke-width="3.5" stroke-miterlimit="10"/>
<path id="Vector_3" d="M2.62988 43.7324C2.62988 46.5687 4.36175 48.8684 6.49764 48.8684H27.2471C29.383 48.8684 31.1149 46.5687 31.1149 43.7324" stroke="url(#paint1_radial_14505_3033)" stroke-width="3.5" stroke-miterlimit="10"/>
<path id="Vector_4" d="M10.3929 19.1387H8.48755V40.92H10.3929V19.1387Z" fill="url(#paint2_radial_14505_3033)"/>
<path id="Vector_5" d="M13.936 19.1387H12.0305V40.92H13.936V19.1387Z" fill="url(#paint3_radial_14505_3033)"/>
<path id="Vector_6" d="M17.5456 19.1387H15.6401V40.92H17.5456V19.1387Z" fill="url(#paint4_radial_14505_3033)"/>
<path id="Vector_7" d="M21.0546 19.1387H19.1492V40.92H21.0546V19.1387Z" fill="url(#paint5_radial_14505_3033)"/>
<path id="Vector_8" d="M24.6484 19.1387H22.7429V40.92H24.6484V19.1387Z" fill="url(#paint6_radial_14505_3033)"/>
<path id="Vector_9" d="M10.3929 52.166H8.48755V55.9997H10.3929V52.166Z" fill="url(#paint7_radial_14505_3033)"/>
<path id="Vector_10" d="M13.936 52.166H12.0305V55.9997H13.936V52.166Z" fill="url(#paint8_radial_14505_3033)"/>
<path id="Vector_11" d="M17.5455 52.166H15.6401V55.9997H17.5455V52.166Z" fill="url(#paint9_radial_14505_3033)"/>
<path id="Vector_12" d="M21.0555 52.166H19.1501V55.9997H21.0555V52.166Z" fill="url(#paint10_radial_14505_3033)"/>
<path id="Vector_13" d="M24.6483 52.166H22.7429V55.9997H24.6483V52.166Z" fill="url(#paint11_radial_14505_3033)"/>
<path id="Vector_14" d="M13.935 0.708984H12.0295V4.54266H13.935V0.708984Z" fill="url(#paint12_radial_14505_3033)"/>
<path id="Vector_15" d="M17.5456 0.708984H15.6401V4.54266H17.5456V0.708984Z" fill="url(#paint13_radial_14505_3033)"/>
<path id="Vector_16" d="M21.0546 0.708984H19.1492V4.54266H21.0546V0.708984Z" fill="url(#paint14_radial_14505_3033)"/>
<path id="Vector_17" d="M26.3192 17.4169V14.8867H7.42261V17.4169H26.3192Z" fill="url(#paint15_radial_14505_3033)"/>
<path id="Vector_18" d="M26.0601 45.6298V43.0996H7.16357V45.6298H26.0601Z" fill="url(#paint16_radial_14505_3033)"/>
<path id="Vector_19" d="M26.0601 8.39543V5.86523H7.16357V8.39543H26.0601Z" fill="url(#paint17_radial_14505_3033)"/>
</g>
<defs>
<radialGradient id="paint0_radial_14505_3033" cx="0" cy="0" r="1" gradientUnits="userSpaceOnUse" gradientTransform="translate(16.5921 14.2338) rotate(90) scale(2.65376 15.0272)">
<stop stop-color="#DBBC80"/>
<stop offset="1" stop-color="#AB8219"/>
</radialGradient>
<radialGradient id="paint1_radial_14505_3033" cx="0" cy="0" r="1" gradientUnits="userSpaceOnUse" gradientTransform="translate(16.8723 46.3004) rotate(90) scale(2.568 14.2425)">
<stop stop-color="#DBBC80"/>
<stop offset="1" stop-color="#AB8219"/>
</radialGradient>
<radialGradient id="paint2_radial_14505_3033" cx="0" cy="0" r="1" gradientUnits="userSpaceOnUse" gradientTransform="translate(9.44024 30.0293) rotate(90) scale(10.8907 0.952701)">
<stop stop-color="#DBBC80"/>
<stop offset="1" stop-color="#AB8219"/>
</radialGradient>
<radialGradient id="paint3_radial_14505_3033" cx="0" cy="0" r="1" gradientUnits="userSpaceOnUse" gradientTransform="translate(12.9833 30.0293) rotate(90) scale(10.8907 0.952701)">
<stop stop-color="#DBBC80"/>
<stop offset="1" stop-color="#AB8219"/>
</radialGradient>
<radialGradient id="paint4_radial_14505_3033" cx="0" cy="0" r="1" gradientUnits="userSpaceOnUse" gradientTransform="translate(16.5928 30.0293) rotate(90) scale(10.8907 0.952701)">
<stop stop-color="#DBBC80"/>
<stop offset="1" stop-color="#AB8219"/>
</radialGradient>
<radialGradient id="paint5_radial_14505_3033" cx="0" cy="0" r="1" gradientUnits="userSpaceOnUse" gradientTransform="translate(20.1019 30.0293) rotate(90) scale(10.8907 0.952701)">
<stop stop-color="#DBBC80"/>
<stop offset="1" stop-color="#AB8219"/>
</radialGradient>
<radialGradient id="paint6_radial_14505_3033" cx="0" cy="0" r="1" gradientUnits="userSpaceOnUse" gradientTransform="translate(23.6956 30.0293) rotate(90) scale(10.8907 0.952701)">
<stop stop-color="#DBBC80"/>
<stop offset="1" stop-color="#AB8219"/>
</radialGradient>
<radialGradient id="paint7_radial_14505_3033" cx="0" cy="0" r="1" gradientUnits="userSpaceOnUse" gradientTransform="translate(9.44024 54.0828) rotate(90) scale(1.91684 0.952701)">
<stop stop-color="#DBBC80"/>
<stop offset="1" stop-color="#AB8219"/>
</radialGradient>
<radialGradient id="paint8_radial_14505_3033" cx="0" cy="0" r="1" gradientUnits="userSpaceOnUse" gradientTransform="translate(12.9833 54.0828) rotate(90) scale(1.91684 0.952701)">
<stop stop-color="#DBBC80"/>
<stop offset="1" stop-color="#AB8219"/>
</radialGradient>
<radialGradient id="paint9_radial_14505_3033" cx="0" cy="0" r="1" gradientUnits="userSpaceOnUse" gradientTransform="translate(16.5928 54.0828) rotate(90) scale(1.91684 0.952701)">
<stop stop-color="#DBBC80"/>
<stop offset="1" stop-color="#AB8219"/>
</radialGradient>
<radialGradient id="paint10_radial_14505_3033" cx="0" cy="0" r="1" gradientUnits="userSpaceOnUse" gradientTransform="translate(20.1028 54.0828) rotate(90) scale(1.91684 0.952701)">
<stop stop-color="#DBBC80"/>
<stop offset="1" stop-color="#AB8219"/>
</radialGradient>
<radialGradient id="paint11_radial_14505_3033" cx="0" cy="0" r="1" gradientUnits="userSpaceOnUse" gradientTransform="translate(23.6956 54.0828) rotate(90) scale(1.91684 0.9527)">
<stop stop-color="#DBBC80"/>
<stop offset="1" stop-color="#AB8219"/>
</radialGradient>
<radialGradient id="paint12_radial_14505_3033" cx="0" cy="0" r="1" gradientUnits="userSpaceOnUse" gradientTransform="translate(12.9822 2.62582) rotate(90) scale(1.91684 0.952701)">
<stop stop-color="#DBBC80"/>
<stop offset="1" stop-color="#AB8219"/>
</radialGradient>
<radialGradient id="paint13_radial_14505_3033" cx="0" cy="0" r="1" gradientUnits="userSpaceOnUse" gradientTransform="translate(16.5928 2.62582) rotate(90) scale(1.91684 0.952701)">
<stop stop-color="#DBBC80"/>
<stop offset="1" stop-color="#AB8219"/>
</radialGradient>
<radialGradient id="paint14_radial_14505_3033" cx="0" cy="0" r="1" gradientUnits="userSpaceOnUse" gradientTransform="translate(20.1019 2.62582) rotate(90) scale(1.91684 0.952701)">
<stop stop-color="#DBBC80"/>
<stop offset="1" stop-color="#AB8219"/>
</radialGradient>
<radialGradient id="paint15_radial_14505_3033" cx="0" cy="0" r="1" gradientUnits="userSpaceOnUse" gradientTransform="translate(16.8709 16.1518) rotate(180) scale(9.44825 1.26509)">
<stop stop-color="#DBBC80"/>
<stop offset="1" stop-color="#AB8219"/>
</radialGradient>
<radialGradient id="paint16_radial_14505_3033" cx="0" cy="0" r="1" gradientUnits="userSpaceOnUse" gradientTransform="translate(16.6118 44.3647) rotate(-180) scale(9.44825 1.2651)">
<stop stop-color="#DBBC80"/>
<stop offset="1" stop-color="#AB8219"/>
</radialGradient>
<radialGradient id="paint17_radial_14505_3033" cx="0" cy="0" r="1" gradientUnits="userSpaceOnUse" gradientTransform="translate(16.6118 7.13033) rotate(-180) scale(9.44825 1.26509)">
<stop stop-color="#DBBC80"/>
<stop offset="1" stop-color="#AB8219"/>
</radialGradient>
<clipPath id="clip0_14505_3033">
<rect width="213" height="56" fill="white" transform="translate(0.5)"/>
</clipPath>
</defs>
</svg>
