<svg width="20" height="21" viewBox="0 0 20 21" fill="none" xmlns="http://www.w3.org/2000/svg">
<g id="IMAGE" clip-path="url(#clip0_2_865)">
<path id="Vector" d="M13.8655 2.43007C14.9461 2.43318 15.9816 2.84795 16.7458 3.5838C17.5099 4.31965 17.9407 5.31679 17.9439 6.35743V14.2114C17.9407 15.252 17.5099 16.2491 16.7458 16.9849C15.9816 17.7208 14.9461 18.1356 13.8655 18.1387H5.70952C4.62885 18.1356 3.59336 17.7208 2.82921 16.9849C2.06506 16.2491 1.63433 15.252 1.6311 14.2114V6.35743C1.63433 5.31679 2.06506 4.31965 2.82921 3.5838C3.59336 2.84795 4.62885 2.43318 5.70952 2.43007H13.8655ZM13.8655 0.859375H5.70952C2.56922 0.859375 0 3.33344 0 6.35743V14.2114C0 17.2353 2.56922 19.7094 5.70952 19.7094H13.8655C17.0058 19.7094 19.575 17.2353 19.575 14.2114V6.35743C19.575 3.33344 17.0058 0.859375 13.8655 0.859375Z" fill="white"/>
<path id="Vector_2" d="M15.0897 6.35723C14.8477 6.35723 14.6112 6.28813 14.41 6.15868C14.2088 6.02922 14.052 5.84522 13.9594 5.62995C13.8668 5.41468 13.8426 5.1778 13.8898 4.94926C13.937 4.72073 14.0535 4.51081 14.2246 4.34604C14.3957 4.18128 14.6137 4.06907 14.851 4.02361C15.0883 3.97816 15.3343 4.00149 15.5579 4.09066C15.7814 4.17983 15.9725 4.33083 16.1069 4.52457C16.2414 4.71831 16.3131 4.94609 16.3131 5.1791C16.3135 5.33391 16.2821 5.48726 16.2207 5.63034C16.1593 5.77343 16.0692 5.90344 15.9556 6.0129C15.8419 6.12237 15.7069 6.20914 15.5583 6.26823C15.4097 6.32731 15.2505 6.35756 15.0897 6.35723ZM9.78828 7.14236C10.4336 7.14236 11.0644 7.32663 11.6009 7.67185C12.1374 8.01708 12.5556 8.50776 12.8026 9.08185C13.0495 9.65594 13.1141 10.2876 12.9882 10.8971C12.8623 11.5065 12.5516 12.0663 12.0953 12.5057C11.639 12.9451 11.0577 13.2443 10.4248 13.3656C9.7919 13.4868 9.13589 13.4246 8.53972 13.1868C7.94355 12.949 7.434 12.5463 7.07549 12.0296C6.71699 11.5129 6.52564 10.9055 6.52564 10.2841C6.52656 9.45118 6.8706 8.65257 7.48227 8.06356C8.09393 7.47455 8.92326 7.14325 9.78828 7.14236ZM9.78828 5.57167C8.82039 5.57167 7.87423 5.84805 7.06946 6.36587C6.26469 6.88369 5.63744 7.61968 5.26705 8.48077C4.89665 9.34187 4.79974 10.2893 4.98857 11.2035C5.17739 12.1176 5.64348 12.9573 6.32788 13.6164C7.01228 14.2754 7.88426 14.7242 8.83356 14.9061C9.78285 15.0879 10.7668 14.9946 11.661 14.6379C12.5553 14.2812 13.3196 13.6772 13.8573 12.9022C14.395 12.1273 14.682 11.2162 14.682 10.2841C14.682 9.03434 14.1664 7.8357 13.2487 6.95193C12.3309 6.06816 11.0862 5.57167 9.78828 5.57167Z" fill="white"/>
</g>
<defs>
<clipPath id="clip0_2_865">
<rect width="20" height="20" fill="white" transform="translate(0 0.03125)"/>
</clipPath>
</defs>
</svg>
