<svg width="21" height="21" viewBox="0 0 21 21" fill="none" xmlns="http://www.w3.org/2000/svg">
<g id="IMAGE" clip-path="url(#clip0_2_870)">
<path id="Vector" d="M10.7459 0.03125C5.25387 0.03125 0.800781 4.48235 0.800781 9.97189C0.800781 14.0414 3.25153 17.5384 6.75451 19.0783C6.72787 18.386 6.75007 17.5517 6.92766 16.7973C7.11857 15.9896 8.20631 11.3786 8.20631 11.3786C8.20631 11.3786 7.88665 10.7441 7.88665 9.80769C7.88665 8.33435 8.73908 7.23378 9.80463 7.23378C10.7103 7.23378 11.1454 7.91276 11.1454 8.72487C11.1454 9.63462 10.5638 10.9925 10.2664 12.2529C10.0177 13.3091 10.7947 14.1656 11.838 14.1656C13.7205 14.1656 14.9903 11.747 14.9903 8.88019C14.9903 6.70124 13.5207 5.07257 10.8524 5.07257C7.83781 5.07257 5.95535 7.32253 5.95535 9.83432C5.95535 10.6996 6.21286 11.312 6.61243 11.7825C6.79447 11.9999 6.8211 12.0887 6.75451 12.3372C6.70567 12.5191 6.59912 12.9586 6.55028 13.1361C6.48368 13.389 6.27945 13.4777 6.05302 13.3846C4.66338 12.8166 4.01517 11.2987 4.01517 9.5858C4.01517 6.76337 6.39933 3.37734 11.1232 3.37734C14.9192 3.37734 17.4188 6.12433 17.4188 9.07102C17.4188 12.9719 15.2478 15.883 12.0511 15.883C10.9767 15.883 9.9689 15.3017 9.6226 14.6448C9.6226 14.6448 9.04543 16.9347 8.92111 17.3785C8.71244 18.1462 8.29955 18.9095 7.92217 19.5086C8.83759 19.7787 9.78698 19.9162 10.7414 19.917C16.2334 19.917 20.6865 15.4658 20.6865 9.97633C20.6865 4.48679 16.2378 0.03125 10.7459 0.03125Z" fill="white"/>
</g>
<defs>
<clipPath id="clip0_2_870">
<rect width="21" height="20" fill="white" transform="translate(0 0.03125)"/>
</clipPath>
</defs>
</svg>
