<svg width="22" height="19" viewBox="0 0 22 19" fill="none" xmlns="http://www.w3.org/2000/svg">
<g id="IMAGE" clip-path="url(#clip0_2_868)">
<path id="Vector" d="M21.3599 2.67657C20.5732 3.01841 19.7408 3.24362 18.889 3.34509C19.7842 2.82093 20.4574 1.9882 20.7823 1.00308C19.936 1.49796 19.0116 1.84519 18.0488 2.0299C17.6433 1.60498 17.1557 1.26695 16.6156 1.03635C16.0754 0.805753 15.494 0.687398 14.9067 0.688484C12.5289 0.688484 10.6046 2.58481 10.6046 4.92245C10.6029 5.24761 10.6402 5.5718 10.7156 5.88809C9.01051 5.80816 7.34088 5.37319 5.81353 4.61102C4.28618 3.84885 2.93474 2.77626 1.84567 1.46187C1.46359 2.10598 1.26153 2.84088 1.2606 3.58978C1.2606 5.0579 2.02656 6.35562 3.18315 7.1159C2.4979 7.09964 1.8267 6.91827 1.22652 6.5872V6.63963C1.22652 8.69326 2.71212 10.4018 4.67836 10.7906C4.30862 10.8892 3.9276 10.939 3.54494 10.9391C3.27341 10.9396 3.0025 10.9132 2.73616 10.8604C3.28277 12.5427 4.87368 13.7662 6.75821 13.8012C5.22689 14.9813 3.34683 15.6192 1.41353 15.6145C1.07037 15.614 0.727518 15.5935 0.386719 15.5533C2.35347 16.8092 4.63967 17.4734 6.97318 17.4671C14.8976 17.4671 19.2268 11.0135 19.2268 5.41619C19.2268 5.23268 19.222 5.04916 19.2132 4.87002C20.0535 4.27231 20.7805 3.52953 21.3599 2.67657Z" fill="white"/>
</g>
<defs>
<clipPath id="clip0_2_868">
<rect width="22" height="18" fill="white" transform="translate(0 0.03125)"/>
</clipPath>
</defs>
</svg>
